<?xml version="1.0" encoding="UTF-8" standalone="no"?>
<svg
   inkscape:version="1.1.2 (0a00cf5339, 2022-02-04)"
   id="svg8"
   version="1.1"
   viewBox="0 0 215 215"
   height="215"
   width="215"
   sodipodi:docname="mintupdate-type-flatpak-symbolic.svg"
   xmlns:inkscape="http://www.inkscape.org/namespaces/inkscape"
   xmlns:sodipodi="http://sodipodi.sourceforge.net/DTD/sodipodi-0.dtd"
   xmlns="http://www.w3.org/2000/svg"
   xmlns:svg="http://www.w3.org/2000/svg"
   xmlns:rdf="http://www.w3.org/1999/02/22-rdf-syntax-ns#"
   xmlns:cc="http://creativecommons.org/ns#"
   xmlns:dc="http://purl.org/dc/elements/1.1/">
  <defs
     id="defs2" />
  <sodipodi:namedview
     units="mm"
     borderlayer="true"
     inkscape:showpageshadow="false"
     showgrid="false"
     inkscape:document-rotation="0"
     inkscape:current-layer="layer1"
     inkscape:document-units="px"
     inkscape:cy="108.78906"
     inkscape:cx="62.890625"
     inkscape:zoom="2.56"
     inkscape:pageshadow="2"
     inkscape:pageopacity="0"
     borderopacity="1"
     bordercolor="#383838"
     pagecolor="#ffffff"
     id="base"
     inkscape:pagecheckerboard="true"
     inkscape:deskcolor="#1f1f1f"
     showborder="true"
     fit-margin-top="0"
     fit-margin-left="0"
     fit-margin-right="0"
     fit-margin-bottom="0"
     inkscape:window-width="1920"
     inkscape:window-height="987"
     inkscape:window-x="1920"
     inkscape:window-y="26"
     inkscape:window-maximized="1" />
  <metadata
     id="metadata5">
    <rdf:RDF>
      <cc:Work
         rdf:about="">
        <dc:format>image/svg+xml</dc:format>
        <dc:type
           rdf:resource="http://purl.org/dc/dcmitype/StillImage" />
        <cc:license
           rdf:resource="http://creativecommons.org/licenses/by-sa/4.0/" />
      </cc:Work>
      <cc:License
         rdf:about="http://creativecommons.org/licenses/by-sa/4.0/">
        <cc:permits
           rdf:resource="http://creativecommons.org/ns#Reproduction" />
        <cc:permits
           rdf:resource="http://creativecommons.org/ns#Distribution" />
        <cc:requires
           rdf:resource="http://creativecommons.org/ns#Notice" />
        <cc:requires
           rdf:resource="http://creativecommons.org/ns#Attribution" />
        <cc:permits
           rdf:resource="http://creativecommons.org/ns#DerivativeWorks" />
        <cc:requires
           rdf:resource="http://creativecommons.org/ns#ShareAlike" />
      </cc:License>
    </rdf:RDF>
  </metadata>
  <g
     id="layer1"
     inkscape:groupmode="layer"
     inkscape:label="Layer 1"
     transform="translate(-103.9751,-45.292098)">
    <path
       id="path9124"
       style="mix-blend-mode:normal;fill:#bebebe;fill-opacity:1;stroke:none;stroke-width:0.653557px;stroke-linecap:butt;stroke-linejoin:miter;stroke-opacity:1"
       d="M 107.5 1.0351562 C 102.57026 1.0351562 97.639774 2.312454 93.214844 4.8671875 L 25.759766 43.8125 C 16.909906 48.921973 11.474609 58.335747 11.474609 68.554688 L 11.474609 146.44531 C 11.474609 156.66425 16.909906 166.07802 25.759766 171.1875 L 93.214844 210.13281 C 102.0647 215.24228 112.93529 215.24228 121.78516 210.13281 L 189.24023 171.1875 C 198.09009 166.07802 203.52539 156.66425 203.52539 146.44531 L 203.52539 68.554688 C 203.52539 58.335747 198.09009 48.921973 189.24023 43.8125 L 121.78516 4.8671875 C 117.36022 2.312454 112.42974 1.0351562 107.5 1.0351562 z M 107.5 21.958984 C 108.82429 21.958984 110.14921 22.297872 111.32812 22.978516 L 178.7832 61.923828 C 179.96211 62.604473 180.91988 63.581646 181.58203 64.728516 L 107.5 107.5 L 107.5 193.04102 C 106.17571 193.04102 104.85078 192.70213 103.67188 192.02148 L 36.216797 153.07617 C 33.858977 151.71488 32.388672 149.16788 32.388672 146.44531 L 32.388672 68.554688 C 32.388672 67.193402 32.755821 65.875386 33.417969 64.728516 L 107.5 107.5 L 107.5 21.958984 z "
       transform="translate(103.9751,45.292098)" />
  </g>
</svg>
