<?xml version="1.0" encoding="UTF-8" standalone="no"?>
<svg
   xmlns:osb="http://www.openswatchbook.org/uri/2009/osb"
   xmlns:dc="http://purl.org/dc/elements/1.1/"
   xmlns:cc="http://creativecommons.org/ns#"
   xmlns:rdf="http://www.w3.org/1999/02/22-rdf-syntax-ns#"
   xmlns:svg="http://www.w3.org/2000/svg"
   xmlns="http://www.w3.org/2000/svg"
   width="16"
   version="1.1"
   style="enable-background:new"
   id="svg7384"
   height="16">
  <metadata
     id="metadata90">
    <rdf:RDF>
      <cc:Work
         rdf:about="">
        <dc:format>image/svg+xml</dc:format>
        <dc:type
           rdf:resource="http://purl.org/dc/dcmitype/StillImage" />
        <dc:title>Moka Symbolic Icon Theme</dc:title>
      </cc:Work>
    </rdf:RDF>
  </metadata>
  <title
     id="title8473">Moka Symbolic Icon Theme</title>
  <defs
     id="defs7386">
    <linearGradient
       osb:paint="solid"
       id="linearGradient5606">
      <stop
         style="stop-color:#000000;stop-opacity:1;"
         offset="0"
         id="stop5608" />
    </linearGradient>
    <filter
       style="color-interpolation-filters:sRGB"
       id="filter7554">
      <feBlend
         mode="darken"
         in2="BackgroundImage"
         id="feBlend7556" />
    </filter>
  </defs>
  <path
     style="opacity:0.75;fill:#bebebe;fill-opacity:1;stroke:none;stroke-width:2;stroke-miterlimit:4;stroke-dasharray:none;stroke-opacity:1"
     d="m 12,10 v 3 h 1 v -3 z m 0,4 v 1 h 1 v -1 z"
     id="rect846" />
  <path
     style="display:block;overflow:visible;visibility:visible;fill:#bebebe;fill-opacity:1;fill-rule:nonzero;stroke:none;stroke-width:1.00000012;stroke-linecap:round;stroke-linejoin:round;stroke-miterlimit:4;stroke-dasharray:none;stroke-dashoffset:0;stroke-opacity:1;marker:none;enable-background:new"
     d="M 7.8457031 0 C 4.7898211 2.1762286 -2.3684758e-15 3.5117188 0 3.5117188 C 1.238713 13.560496 8 16 8 16 C 8 16 8.4064665 15.840985 9.0292969 15.462891 C 8.5961031 14.934807 8.3073886 14.31083 8.1503906 13.648438 C 8.0784654 13.680958 8 13.714844 8 13.714844 C 8 13.714844 3.1699512 11.97262 2.2851562 4.7949219 C 2.2851562 4.7949219 5.7058999 3.8396057 7.8886719 2.2851562 C 9.5845209 3.2607647 13.714844 4.6894531 13.714844 4.6894531 C 13.545552 5.9633032 13.251645 7.0608779 12.892578 8.0175781 C 13.57178 8.0644348 14.157405 8.2415075 14.667969 8.5 C 15.256974 7.0551905 15.734482 5.3631468 16 3.3652344 C 16 3.3652344 10.21989 1.3658516 7.8457031 0 z "
     id="path15651-4-5" />
  <g
     transform="translate(-519.00021,368.01034)"
     style="display:inline;filter:url(#filter7554)"
     id="layer10" />
  <g
     transform="translate(-278.00001,-248.98966)"
     style="display:inline"
     id="layer1" />
  <g
     transform="translate(-519.00021,368.01034)"
     style="display:inline"
     id="layer14" />
  <g
     transform="translate(-519.00021,368.01034)"
     style="display:inline"
     id="layer15" />
  <g
     transform="translate(-519.00021,368.01034)"
     style="display:inline"
     id="g71291" />
  <g
     transform="translate(-278.00001,-98.98966)"
     style="display:inline"
     id="layer2" />
  <g
     transform="translate(-278.00001,-98.98966)"
     style="display:inline"
     id="g6058" />
  <g
     transform="translate(-519.00021,368.01034)"
     style="display:inline"
     id="layer12" />
  <path
     id="path6"
     style="color:#bebebe;overflow:visible;fill:#ef2929;marker:none"
     overflow="visible"
     d="m 12.5,9 a 3.5,3.5 0 1 0 0,7 3.5,3.5 0 0 0 0,-7 z M 12,10 h 1 v 3 h -1 z m 0,4 h 1 v 1 h -1 z"
     class="error" />
  <path
     style="display:block;overflow:visible;visibility:visible;opacity:0.35;fill:#bebebe;fill-opacity:1;fill-rule:nonzero;stroke:none;stroke-width:1.00000012;stroke-linecap:round;stroke-linejoin:round;stroke-miterlimit:4;stroke-dasharray:none;stroke-dashoffset:0;stroke-opacity:1;marker:none;enable-background:new"
     d="M 7.9121094 3.5 C 6.1931764 4.7241287 3.5 5.4765625 3.5 5.4765625 C 4.196776 11.128998 8 12.5 8 12.5 C 8 10.420768 9.2838051 8.3446537 11.845703 8.0410156 C 12.133007 7.2816983 12.365154 6.4072334 12.5 5.3925781 C 12.5 5.3925781 9.2475914 4.2682914 7.9121094 3.5 z "
     id="path15651-4-7" />
</svg>
