<?xml version="1.0" encoding="UTF-8" standalone="no"?>
<svg
   xmlns:dc="http://purl.org/dc/elements/1.1/"
   xmlns:cc="http://creativecommons.org/ns#"
   xmlns:rdf="http://www.w3.org/1999/02/22-rdf-syntax-ns#"
   xmlns:svg="http://www.w3.org/2000/svg"
   xmlns="http://www.w3.org/2000/svg"
   width="48px"
   height="48px"
   id="svg7387"
   version="1.1">
  <defs
     id="defs7389" />
  <metadata
     id="metadata7392">
    <rdf:RDF>
      <cc:Work
         rdf:about="">
        <dc:format>image/svg+xml</dc:format>
        <dc:type
           rdf:resource="http://purl.org/dc/dcmitype/StillImage" />
        <dc:title></dc:title>
      </cc:Work>
    </rdf:RDF>
  </metadata>
  <path
     id="path4282"
     d="M 23.765625 4.7792969 C 23.664775 4.7792969 22.784438 5.286334 21.808594 5.90625 C 18.422368 8.057389 13.601203 10.328106 8.1347656 12.345703 C 6.6245965 12.903089 5.3641713 13.384626 5.3320312 13.416016 C 5.1953982 13.549472 5.9525349 17.928146 6.4980469 20.15625 C 9.06994 30.660972 14.926429 39.21749 22.496094 43.53125 C 23.374155 44.031636 24.14893 44.441406 24.21875 44.441406 C 24.288568 44.441406 25.178262 43.914704 26.195312 43.271484 C 33.114688 38.895419 38.262535 31.568107 41.179688 21.945312 C 41.83836 19.772559 43.240426 13.17402 43.078125 13.011719 C 43.039666 12.973261 41.271713 12.256551 39.148438 11.419922 C 34.236369 9.4844317 30.342592 7.8178627 26.771484 6.1210938 C 25.219364 5.3836217 23.866475 4.7792969 23.765625 4.7792969 z M 24.203125 13.380859 C 30.404638 13.380859 35.431641 18.407862 35.431641 24.609375 C 35.431641 30.810888 30.404638 35.839844 24.203125 35.839844 C 18.001612 35.839844 12.974609 30.810888 12.974609 24.609375 C 12.974609 18.407862 18.001612 13.380859 24.203125 13.380859 z M 16.183594 22.90625 L 16.183594 26.214844 L 32.224609 26.214844 L 32.224609 22.90625 L 16.183594 22.90625 z "
     style="fill:#ef2929;fill-opacity:1;stroke:none" />
  <g
     id="text6189"
     style="font-style:normal;font-weight:normal;font-size:40px;line-height:125%;font-family:Sans;letter-spacing:0px;word-spacing:0px;fill:#000000;fill-opacity:1;stroke:none;stroke-width:1px;stroke-linecap:butt;stroke-linejoin:miter;stroke-opacity:1" />
</svg>
