<?xml version="1.0" encoding="UTF-8" standalone="no"?>
<svg
   xmlns:dc="http://purl.org/dc/elements/1.1/"
   xmlns:cc="http://creativecommons.org/ns#"
   xmlns:rdf="http://www.w3.org/1999/02/22-rdf-syntax-ns#"
   xmlns:svg="http://www.w3.org/2000/svg"
   xmlns="http://www.w3.org/2000/svg"
   version="1.1"
   id="svg7387"
   height="48px"
   width="48px">
  <defs
     id="defs7389" />
  <metadata
     id="metadata7392">
    <rdf:RDF>
      <cc:Work
         rdf:about="">
        <dc:format>image/svg+xml</dc:format>
        <dc:type
           rdf:resource="http://purl.org/dc/dcmitype/StillImage" />
        <dc:title></dc:title>
      </cc:Work>
    </rdf:RDF>
  </metadata>
  <path
     style="fill:#bebebe;fill-opacity:1;stroke:none"
     d="M 22.49513,43.530886 C 14.925465,39.217126 9.0702206,30.661651 6.4983275,20.156929 5.9528155,17.928825 5.1945295,13.549176 5.3311625,13.41572 c 0.03214,-0.03139 1.294023,-0.513114 2.8041921,-1.0705 5.4664374,-2.017597 10.2863404,-4.2872992 13.6725664,-6.4384382 0.975844,-0.619916 1.856774,-1.12712 1.957624,-1.12712 0.10085,0 1.45328,0.603385 3.0054,1.340857 3.571108,1.696769 7.465386,3.364191 12.377455,5.2996812 2.123276,0.836629 3.891969,1.552611 3.930428,1.591069 0.162301,0.162301 -1.240455,6.761214 -1.899127,8.933968 -2.917153,9.622794 -8.065654,16.949884 -14.985029,21.325949 -1.01705,0.64322 -1.906307,1.169491 -1.976125,1.169491 -0.06982,0 -0.845356,-0.409405 -1.723417,-0.909791 z"
     id="path4282" />
</svg>
