<?xml version="1.0" encoding="UTF-8" standalone="no"?>
<svg
   xmlns:dc="http://purl.org/dc/elements/1.1/"
   xmlns:cc="http://creativecommons.org/ns#"
   xmlns:rdf="http://www.w3.org/1999/02/22-rdf-syntax-ns#"
   xmlns:svg="http://www.w3.org/2000/svg"
   xmlns="http://www.w3.org/2000/svg"
   version="1.1"
   id="svg7387"
   height="48px"
   width="48px">
  <defs
     id="defs7389" />
  <metadata
     id="metadata7392">
    <rdf:RDF>
      <cc:Work
         rdf:about="">
        <dc:format>image/svg+xml</dc:format>
        <dc:type
           rdf:resource="http://purl.org/dc/dcmitype/StillImage" />
        <dc:title></dc:title>
      </cc:Work>
    </rdf:RDF>
  </metadata>
  <path
     id="path4282"
     d="M 23.765625 4.7792969 C 23.664775 4.7792969 22.784438 5.286334 21.808594 5.90625 C 18.422368 8.057389 13.601203 10.328106 8.1347656 12.345703 C 6.6245965 12.903089 5.3641713 13.384626 5.3320312 13.416016 C 5.1953982 13.549472 5.9525349 17.928146 6.4980469 20.15625 C 9.06994 30.660972 14.926429 39.21749 22.496094 43.53125 C 23.374155 44.031636 24.14893 44.441406 24.21875 44.441406 C 24.288568 44.441406 25.178262 43.914704 26.195312 43.271484 C 33.114688 38.895419 38.262535 31.568107 41.179688 21.945312 C 41.83836 19.772559 43.240426 13.17402 43.078125 13.011719 C 43.039666 12.973261 41.271713 12.256551 39.148438 11.419922 C 34.236369 9.4844317 30.342592 7.8178627 26.771484 6.1210938 C 25.219364 5.3836217 23.866475 4.7792969 23.765625 4.7792969 z M 29.316406 13.726562 C 29.71214 13.800362 30.113638 13.912767 30.486328 14.042969 C 30.472227 14.750728 30.350262 15.626013 30.351562 16.337891 C 30.91581 16.607412 31.436256 16.943524 31.880859 17.373047 C 32.55477 17.12526 33.333345 16.727415 33.996094 16.472656 C 34.249153 16.779294 34.466605 17.120102 34.671875 17.462891 C 34.210752 17.994589 33.55988 18.580401 33.095703 19.128906 C 33.344873 19.676217 33.477232 20.265441 33.544922 20.884766 C 34.231652 21.121751 35.113573 21.323662 35.796875 21.560547 C 35.794435 21.994852 35.776671 22.405221 35.707031 22.820312 C 34.997112 22.936328 34.094669 22.98075 33.365234 23.091797 C 33.196951 23.682373 32.982101 24.259088 32.646484 24.755859 C 33.027383 25.367017 33.55178 26.050737 33.90625 26.646484 C 33.63163 26.968735 33.328109 27.272255 33.005859 27.546875 C 32.410112 27.192406 31.726392 26.668008 31.115234 26.287109 C 30.618535 26.622725 30.039868 26.839529 29.449219 27.007812 C 29.33813 27.737175 29.295703 28.637722 29.179688 29.347656 C 28.764596 29.417366 28.354227 29.4346 27.919922 29.4375 C 27.683037 28.754226 27.481126 27.874172 27.244141 27.1875 C 26.624557 27.119504 26.032769 26.984865 25.488281 26.736328 C 24.939848 27.200577 24.355989 27.851449 23.824219 28.3125 C 23.48143 28.10723 23.140622 27.889778 22.833984 27.636719 C 23.088743 26.973898 23.486588 26.195295 23.734375 25.521484 C 23.304852 25.076881 22.968726 24.556435 22.699219 23.992188 C 21.987284 23.990892 21.110103 24.112553 20.402344 24.126953 C 20.27207 23.754264 20.161691 23.350812 20.087891 22.955078 C 20.714849 22.609494 21.536373 22.281622 22.158203 21.919922 C 22.148713 21.784722 22.113281 21.653172 22.113281 21.515625 C 22.113281 21.037088 22.183003 20.565654 22.292969 20.121094 C 21.741699 19.681777 20.99907 19.211931 20.447266 18.769531 C 20.598554 18.359625 20.774369 17.974416 20.988281 17.599609 C 21.683365 17.737776 22.53045 17.999332 23.238281 18.140625 C 23.596654 17.646605 24.004028 17.237279 24.498047 16.878906 C 24.356755 16.171004 24.097151 15.324019 23.958984 14.628906 C 24.33379 14.414994 24.719 14.241132 25.128906 14.089844 C 25.571305 14.641575 26.039199 15.382251 26.478516 15.933594 C 26.923076 15.823698 27.39645 15.753906 27.875 15.753906 C 28.012606 15.753906 28.144097 15.788748 28.279297 15.798828 C 28.640997 15.177055 28.96887 14.355402 29.314453 13.728516 L 29.316406 13.726562 z M 27.875 18.634766 C 26.2841 18.634766 24.994141 19.924724 24.994141 21.515625 C 24.994141 23.106526 26.2841 24.396484 27.875 24.396484 C 29.465901 24.396484 30.755859 23.106526 30.755859 21.515625 C 30.755859 19.924724 29.465945 18.634766 27.875 18.634766 z M 18.244141 24.53125 C 18.301363 24.51973 18.365948 24.54133 18.423828 24.53125 C 18.909364 25.286321 19.406867 26.386137 19.863281 26.466797 C 20.32691 26.548692 21.167245 25.657484 21.888672 25.117188 C 22.22979 25.306715 22.544256 25.533809 22.833984 25.791016 C 22.552105 26.6477 21.979327 27.762916 22.205078 28.177734 C 22.432355 28.595346 23.671963 28.709779 24.544922 28.941406 C 24.585392 29.205714 24.634766 29.476325 24.634766 29.751953 C 24.634766 29.859413 24.596144 29.960545 24.589844 30.066406 C 23.744249 30.380202 22.523409 30.621515 22.339844 31.056641 C 22.156452 31.491464 22.829709 32.529209 23.195312 33.353516 C 22.934879 33.633205 22.654849 33.89884 22.339844 34.117188 C 21.567186 33.6518 20.634459 32.864433 20.179688 32.992188 C 19.736668 33.116628 19.323195 34.218764 18.917969 35.017578 C 18.530906 34.988052 18.152393 34.945913 17.792969 34.837891 C 17.679849 33.945488 17.678071 32.770867 17.298828 32.498047 C 16.926369 32.230096 15.833189 32.585511 14.957031 32.767578 C 14.732188 32.44321 14.521958 32.103771 14.373047 31.732422 C 15.001128 31.091334 15.925304 30.394248 15.902344 29.931641 C 15.879731 29.474796 14.926869 28.837731 14.238281 28.267578 C 14.349529 27.886233 14.49826 27.528114 14.6875 27.1875 C 15.577311 27.28198 16.728094 27.535992 17.072266 27.232422 C 17.422516 26.923624 17.274758 25.744919 17.298828 24.845703 C 17.60466 24.71926 17.912672 24.59909 18.244141 24.53125 z M 19.144531 27.232422 C 17.802209 27.232422 16.712891 28.319788 16.712891 29.662109 C 16.712891 31.00443 17.802209 32.09375 19.144531 32.09375 C 20.486852 32.09375 21.574219 31.00443 21.574219 29.662109 C 21.574219 28.319788 20.486852 27.232422 19.144531 27.232422 z "
     style="fill:#bebebe;fill-opacity:1;stroke:none" />
</svg>
