<?xml version="1.0" encoding="UTF-8" standalone="no"?>
<!-- Created with Inkscape (http://www.inkscape.org/) -->

<svg
   xmlns:dc="http://purl.org/dc/elements/1.1/"
   xmlns:cc="http://creativecommons.org/ns#"
   xmlns:rdf="http://www.w3.org/1999/02/22-rdf-syntax-ns#"
   xmlns:svg="http://www.w3.org/2000/svg"
   xmlns="http://www.w3.org/2000/svg"
   xmlns:xlink="http://www.w3.org/1999/xlink"
   xmlns:sodipodi="http://sodipodi.sourceforge.net/DTD/sodipodi-0.dtd"
   xmlns:inkscape="http://www.inkscape.org/namespaces/inkscape"
   width="96"
   height="96"
   id="svg3205"
   version="1.1"
   inkscape:version="0.48.4 r9939"
   sodipodi:docname="base-exec.svg">
  <defs
     id="defs3207">
    <clipPath
       id="clipPath3871-9">
      <path
         d="M 0,95.999997 0,156 l 96.000001,0 0,-60.000003 -96.000001,0 z M 68,116 c 9.941125,0 18,8.05888 18,18 0,9.94112 -8.058875,18 -18,18 -9.941125,0 -18,-8.05888 -18,-18 0,-9.94112 8.058875,-18 18,-18 z"
         inkscape:connector-curvature="0"
         id="path3873-5"
         style="fill:#ffffff;fill-opacity:1;stroke:none" />
    </clipPath>
    <linearGradient
       x1="69"
       y1="122"
       x2="69"
       y2="5.9781809"
       id="linearGradient4090"
       xlink:href="#linearGradient3187"
       gradientUnits="userSpaceOnUse"
       gradientTransform="matrix(0.30997964,0,0,0.31034484,48.14012,54.137931)" />
    <linearGradient
       id="linearGradient3187">
      <stop
         id="stop3189"
         style="stop-color:#1e71ac;stop-opacity:1"
         offset="0" />
      <stop
         id="stop3191"
         style="stop-color:#81c1e9;stop-opacity:1"
         offset="1" />
    </linearGradient>
    <linearGradient
       x1="120.64606"
       y1="87.489296"
       x2="118.33302"
       y2="67.706047"
       id="linearGradient4038"
       xlink:href="#linearGradient5010"
       gradientUnits="userSpaceOnUse" />
    <linearGradient
       id="linearGradient5010">
      <stop
         id="stop5012"
         style="stop-color:#000000;stop-opacity:1"
         offset="0" />
      <stop
         id="stop5014"
         style="stop-color:#000000;stop-opacity:0"
         offset="1" />
    </linearGradient>
    <linearGradient
       x1="69"
       y1="122"
       x2="69"
       y2="5.9781809"
       id="linearGradient4087"
       xlink:href="#linearGradient3210-5"
       gradientUnits="userSpaceOnUse"
       gradientTransform="matrix(0.30997964,0,0,0.31034484,48.18249,54.137931)" />
    <linearGradient
       id="linearGradient3210-5">
      <stop
         id="stop3212-7"
         style="stop-color:#8ab85b;stop-opacity:1;"
         offset="0" />
      <stop
         id="stop3214-3"
         style="stop-color:#bcd6a0;stop-opacity:1;"
         offset="1" />
    </linearGradient>
    <linearGradient
       x1="120.64606"
       y1="87.489296"
       x2="118.33302"
       y2="67.706047"
       id="linearGradient4051"
       xlink:href="#linearGradient5010"
       gradientUnits="userSpaceOnUse" />
    <linearGradient
       id="linearGradient3238">
      <stop
         id="stop3240"
         style="stop-color:#000000;stop-opacity:1"
         offset="0" />
      <stop
         id="stop3242"
         style="stop-color:#000000;stop-opacity:0"
         offset="1" />
    </linearGradient>
    <clipPath
       id="clipPath4029">
      <path
         d="m 118,56 c -9.94112,0 -18,8.05887 -18,18 0,9.94112 8.05888,18 18,18 9.73052,0 17.63723,-7.725264 17.96875,-17.375 l 0,-1.25 C 135.63723,63.725255 127.73052,56 118,56 z m -6,10.75 c 5.9493,0.05747 10.83155,4.941297 11.03125,10.875 l 3.75,0.03125 -6,8.71875 -6.15625,-8.8125 3.96875,0.03125 c -0.25101,-4.905678 -4.48929,-9.950635 -11.71875,-9.625 1.52232,-0.80073 3.27178,-1.236656 5.125,-1.21875 z"
         inkscape:connector-curvature="0"
         id="path4031"
         style="fill:url(#linearGradient4033);fill-opacity:1;stroke:none;display:inline" />
    </clipPath>
    <linearGradient
       x1="84.35965"
       y1="79.416924"
       x2="84.35965"
       y2="5.1837206"
       id="linearGradient4029"
       xlink:href="#linearGradient3250"
       gradientUnits="userSpaceOnUse"
       gradientTransform="matrix(-0.30059886,0,0,-0.30318299,86.16905,93.461103)" />
    <linearGradient
       id="linearGradient3250">
      <stop
         id="stop3252"
         style="stop-color:#ffffff;stop-opacity:1"
         offset="0" />
      <stop
         id="stop3254"
         style="stop-color:#ffffff;stop-opacity:0.49803922"
         offset="0.43290177" />
      <stop
         id="stop3256"
         style="stop-color:#ffffff;stop-opacity:0"
         offset="1" />
    </linearGradient>
    <linearGradient
       x1="120.64606"
       y1="87.489296"
       x2="118.33302"
       y2="67.706047"
       id="linearGradient4052"
       xlink:href="#linearGradient5010"
       gradientUnits="userSpaceOnUse" />
    <linearGradient
       id="linearGradient3252">
      <stop
         id="stop3255"
         style="stop-color:#000000;stop-opacity:1"
         offset="0" />
      <stop
         id="stop3257"
         style="stop-color:#000000;stop-opacity:0"
         offset="1" />
    </linearGradient>
    <linearGradient
       x1="120.64606"
       y1="87.489296"
       x2="118.33302"
       y2="67.706047"
       id="linearGradient4065"
       xlink:href="#linearGradient5010"
       gradientUnits="userSpaceOnUse" />
    <linearGradient
       id="linearGradient3260">
      <stop
         id="stop3262"
         style="stop-color:#000000;stop-opacity:1"
         offset="0" />
      <stop
         id="stop3264"
         style="stop-color:#000000;stop-opacity:0"
         offset="1" />
    </linearGradient>
    <clipPath
       id="clipPath3266">
      <path
         d="m 118,56 c -9.94112,0 -18,8.05887 -18,18 0,9.94112 8.05888,18 18,18 9.73052,0 17.63723,-7.725264 17.96875,-17.375 l 0,-1.25 C 135.63723,63.725255 127.73052,56 118,56 z m -6,10.75 c 5.9493,0.05747 10.83155,4.941297 11.03125,10.875 l 3.75,0.03125 -6,8.71875 -6.15625,-8.8125 3.96875,0.03125 c -0.25101,-4.905678 -4.48929,-9.950635 -11.71875,-9.625 1.52232,-0.80073 3.27178,-1.236656 5.125,-1.21875 z"
         inkscape:connector-curvature="0"
         id="path3268"
         style="fill:url(#linearGradient4033);fill-opacity:1;stroke:none;display:inline" />
    </clipPath>
    <linearGradient
       x1="84.35965"
       y1="79.416924"
       x2="84.35965"
       y2="5.1837206"
       id="linearGradient4042"
       xlink:href="#linearGradient3250"
       gradientUnits="userSpaceOnUse"
       gradientTransform="matrix(0.30059886,0,0,0.30318299,49.70468,55.492569)" />
    <linearGradient
       id="linearGradient3271">
      <stop
         id="stop3273"
         style="stop-color:#ffffff;stop-opacity:1"
         offset="0" />
      <stop
         id="stop3275"
         style="stop-color:#ffffff;stop-opacity:0.49803922"
         offset="0.43290177" />
      <stop
         id="stop3277"
         style="stop-color:#ffffff;stop-opacity:0"
         offset="1" />
    </linearGradient>
    <linearGradient
       x1="64.321426"
       y1="55.310268"
       x2="64.321426"
       y2="84.889679"
       id="linearGradient3857"
       xlink:href="#linearGradient3737"
       gradientUnits="userSpaceOnUse"
       gradientTransform="translate(-2,0)" />
    <linearGradient
       id="linearGradient3737">
      <stop
         id="stop3739"
         style="stop-color:#ffffff;stop-opacity:1"
         offset="0" />
      <stop
         id="stop3741"
         style="stop-color:#ffffff;stop-opacity:0"
         offset="1" />
    </linearGradient>
  </defs>
  <sodipodi:namedview
     id="base"
     pagecolor="#000000"
     bordercolor="#666666"
     borderopacity="1.0"
     inkscape:pageopacity="0"
     inkscape:pageshadow="2"
     inkscape:zoom="5.6"
     inkscape:cx="39.732802"
     inkscape:cy="26.933964"
     inkscape:document-units="px"
     inkscape:current-layer="layer1"
     showgrid="false"
     inkscape:window-width="1920"
     inkscape:window-height="1024"
     inkscape:window-x="0"
     inkscape:window-y="0"
     inkscape:window-maximized="1"
     inkscape:snap-object-midpoints="true"
     inkscape:snap-center="false"
     guidetolerance="10000"
     inkscape:snap-global="true" />
  <metadata
     id="metadata3210">
    <rdf:RDF>
      <cc:Work
         rdf:about="">
        <dc:format>image/svg+xml</dc:format>
        <dc:type
           rdf:resource="http://purl.org/dc/dcmitype/StillImage" />
        <dc:title />
      </cc:Work>
    </rdf:RDF>
  </metadata>
  <g
     inkscape:label="Layer 1"
     inkscape:groupmode="layer"
     id="layer1"
     transform="translate(0,-956.3622)">
    <g
       id="g3808">
      <path
         style="font-size:40px;font-style:normal;font-weight:normal;line-height:125%;letter-spacing:0px;word-spacing:0px;fill:#ffffff;fill-opacity:1;fill-rule:evenodd;stroke:none;display:inline;font-family:Sans"
         inkscape:connector-curvature="0"
         d="m 48.832994,968.69793 c 0,0 -10.041991,13.43363 -30.126005,13.43363 0,49.25654 30.126012,58.21234 30.126012,58.21234 0,0 30.126016,-8.9558 30.126016,-58.21234 -20.084013,0 -30.126023,-13.43363 -30.126023,-13.43363 z m 5e-6,13.43363 c 4.519911,3.3143 10.454234,5.93633 18.514948,7.83627 -1.404371,17.56707 -6.944555,27.85687 -12.08154,33.58397 -2.685728,2.9957 -4.719233,4.6481 -6.433403,5.7362 -1.714174,-1.0881 -3.74768,-2.7405 -6.43292,-5.7362 -5.137485,-5.7271 -10.677652,-16.0169 -12.082028,-33.58397 8.060712,-1.89995 13.995041,-4.52175 18.514943,-7.83627 z"
         id="path3097" />
      <path
         inkscape:connector-curvature="0"
         id="path3038"
         d="m 46.817818,1029.8793 c -7.29061,-5.765 -12.818382,-14.6107 -15.950993,-25.5252 -1.377484,-4.79947 -2.145108,-9.06535 -3.043393,-16.91298 l -0.0961,-0.83953 2.162578,-0.5419 c 6.395613,-1.60258 12.732592,-4.238 17.10075,-7.11183 0.9384,-0.61738 1.775254,-1.12251 1.859676,-1.12251 0.08442,0 0.890925,0.49359 1.792228,1.09687 4.163972,2.7871 11.241372,5.72137 17.419089,7.22189 l 1.877021,0.45592 -0.116365,1.14483 c -1.584012,15.58414 -5.701966,27.33104 -12.529533,35.74194 -2.549386,3.1405 -7.572665,7.7241 -8.471392,7.7297 -0.170469,10e-4 -1.072074,-0.6007 -2.003568,-1.3372 z"
         style="fill:#ffffff;fill-opacity:1;fill-rule:nonzero;stroke:none" />
    </g>
  </g>
</svg>
