<?xml version="1.0" encoding="UTF-8" standalone="no"?>
<!-- Created with Inkscape (http://www.inkscape.org/) -->

<svg
   xmlns:dc="http://purl.org/dc/elements/1.1/"
   xmlns:cc="http://creativecommons.org/ns#"
   xmlns:rdf="http://www.w3.org/1999/02/22-rdf-syntax-ns#"
   xmlns:svg="http://www.w3.org/2000/svg"
   xmlns="http://www.w3.org/2000/svg"
   xmlns:xlink="http://www.w3.org/1999/xlink"
   xmlns:sodipodi="http://sodipodi.sourceforge.net/DTD/sodipodi-0.dtd"
   xmlns:inkscape="http://www.inkscape.org/namespaces/inkscape"
   width="96"
   height="96"
   id="svg3205"
   version="1.1"
   inkscape:version="0.48.4 r9939"
   sodipodi:docname="base-exec.svg">
  <defs
     id="defs3207">
    <clipPath
       id="clipPath3871-9">
      <path
         d="M 0,95.999997 0,156 l 96.000001,0 0,-60.000003 -96.000001,0 z M 68,116 c 9.941125,0 18,8.05888 18,18 0,9.94112 -8.058875,18 -18,18 -9.941125,0 -18,-8.05888 -18,-18 0,-9.94112 8.058875,-18 18,-18 z"
         inkscape:connector-curvature="0"
         id="path3873-5"
         style="fill:#ffffff;fill-opacity:1;stroke:none" />
    </clipPath>
    <linearGradient
       x1="69"
       y1="122"
       x2="69"
       y2="5.9781809"
       id="linearGradient4090"
       xlink:href="#linearGradient3187"
       gradientUnits="userSpaceOnUse"
       gradientTransform="matrix(0.30997964,0,0,0.31034484,48.14012,54.137931)" />
    <linearGradient
       id="linearGradient3187">
      <stop
         id="stop3189"
         style="stop-color:#1e71ac;stop-opacity:1"
         offset="0" />
      <stop
         id="stop3191"
         style="stop-color:#81c1e9;stop-opacity:1"
         offset="1" />
    </linearGradient>
    <linearGradient
       x1="120.64606"
       y1="87.489296"
       x2="118.33302"
       y2="67.706047"
       id="linearGradient4038"
       xlink:href="#linearGradient5010"
       gradientUnits="userSpaceOnUse" />
    <linearGradient
       id="linearGradient5010">
      <stop
         id="stop5012"
         style="stop-color:#000000;stop-opacity:1"
         offset="0" />
      <stop
         id="stop5014"
         style="stop-color:#000000;stop-opacity:0"
         offset="1" />
    </linearGradient>
    <linearGradient
       x1="69"
       y1="122"
       x2="69"
       y2="5.9781809"
       id="linearGradient4087"
       xlink:href="#linearGradient3210-5"
       gradientUnits="userSpaceOnUse"
       gradientTransform="matrix(0.30997964,0,0,0.31034484,48.18249,54.137931)" />
    <linearGradient
       id="linearGradient3210-5">
      <stop
         id="stop3212-7"
         style="stop-color:#8ab85b;stop-opacity:1;"
         offset="0" />
      <stop
         id="stop3214-3"
         style="stop-color:#bcd6a0;stop-opacity:1;"
         offset="1" />
    </linearGradient>
    <linearGradient
       x1="120.64606"
       y1="87.489296"
       x2="118.33302"
       y2="67.706047"
       id="linearGradient4051"
       xlink:href="#linearGradient5010"
       gradientUnits="userSpaceOnUse" />
    <linearGradient
       id="linearGradient3238">
      <stop
         id="stop3240"
         style="stop-color:#000000;stop-opacity:1"
         offset="0" />
      <stop
         id="stop3242"
         style="stop-color:#000000;stop-opacity:0"
         offset="1" />
    </linearGradient>
    <clipPath
       id="clipPath4029">
      <path
         d="m 118,56 c -9.94112,0 -18,8.05887 -18,18 0,9.94112 8.05888,18 18,18 9.73052,0 17.63723,-7.725264 17.96875,-17.375 l 0,-1.25 C 135.63723,63.725255 127.73052,56 118,56 z m -6,10.75 c 5.9493,0.05747 10.83155,4.941297 11.03125,10.875 l 3.75,0.03125 -6,8.71875 -6.15625,-8.8125 3.96875,0.03125 c -0.25101,-4.905678 -4.48929,-9.950635 -11.71875,-9.625 1.52232,-0.80073 3.27178,-1.236656 5.125,-1.21875 z"
         inkscape:connector-curvature="0"
         id="path4031"
         style="fill:url(#linearGradient4033);fill-opacity:1;stroke:none;display:inline" />
    </clipPath>
    <linearGradient
       x1="84.35965"
       y1="79.416924"
       x2="84.35965"
       y2="5.1837206"
       id="linearGradient4029"
       xlink:href="#linearGradient3250"
       gradientUnits="userSpaceOnUse"
       gradientTransform="matrix(-0.30059886,0,0,-0.30318299,86.16905,93.461103)" />
    <linearGradient
       id="linearGradient3250">
      <stop
         id="stop3252"
         style="stop-color:#ffffff;stop-opacity:1"
         offset="0" />
      <stop
         id="stop3254"
         style="stop-color:#ffffff;stop-opacity:0.49803922"
         offset="0.43290177" />
      <stop
         id="stop3256"
         style="stop-color:#ffffff;stop-opacity:0"
         offset="1" />
    </linearGradient>
    <linearGradient
       x1="120.64606"
       y1="87.489296"
       x2="118.33302"
       y2="67.706047"
       id="linearGradient4052"
       xlink:href="#linearGradient5010"
       gradientUnits="userSpaceOnUse" />
    <linearGradient
       id="linearGradient3252">
      <stop
         id="stop3255"
         style="stop-color:#000000;stop-opacity:1"
         offset="0" />
      <stop
         id="stop3257"
         style="stop-color:#000000;stop-opacity:0"
         offset="1" />
    </linearGradient>
    <linearGradient
       x1="120.64606"
       y1="87.489296"
       x2="118.33302"
       y2="67.706047"
       id="linearGradient4065"
       xlink:href="#linearGradient5010"
       gradientUnits="userSpaceOnUse" />
    <linearGradient
       id="linearGradient3260">
      <stop
         id="stop3262"
         style="stop-color:#000000;stop-opacity:1"
         offset="0" />
      <stop
         id="stop3264"
         style="stop-color:#000000;stop-opacity:0"
         offset="1" />
    </linearGradient>
    <clipPath
       id="clipPath3266">
      <path
         d="m 118,56 c -9.94112,0 -18,8.05887 -18,18 0,9.94112 8.05888,18 18,18 9.73052,0 17.63723,-7.725264 17.96875,-17.375 l 0,-1.25 C 135.63723,63.725255 127.73052,56 118,56 z m -6,10.75 c 5.9493,0.05747 10.83155,4.941297 11.03125,10.875 l 3.75,0.03125 -6,8.71875 -6.15625,-8.8125 3.96875,0.03125 c -0.25101,-4.905678 -4.48929,-9.950635 -11.71875,-9.625 1.52232,-0.80073 3.27178,-1.236656 5.125,-1.21875 z"
         inkscape:connector-curvature="0"
         id="path3268"
         style="fill:url(#linearGradient4033);fill-opacity:1;stroke:none;display:inline" />
    </clipPath>
    <linearGradient
       x1="84.35965"
       y1="79.416924"
       x2="84.35965"
       y2="5.1837206"
       id="linearGradient4042"
       xlink:href="#linearGradient3250"
       gradientUnits="userSpaceOnUse"
       gradientTransform="matrix(0.30059886,0,0,0.30318299,49.70468,55.492569)" />
    <linearGradient
       id="linearGradient3271">
      <stop
         id="stop3273"
         style="stop-color:#ffffff;stop-opacity:1"
         offset="0" />
      <stop
         id="stop3275"
         style="stop-color:#ffffff;stop-opacity:0.49803922"
         offset="0.43290177" />
      <stop
         id="stop3277"
         style="stop-color:#ffffff;stop-opacity:0"
         offset="1" />
    </linearGradient>
    <linearGradient
       x1="64.321426"
       y1="55.310268"
       x2="64.321426"
       y2="84.889679"
       id="linearGradient3857"
       xlink:href="#linearGradient3737"
       gradientUnits="userSpaceOnUse"
       gradientTransform="translate(-2,0)" />
    <linearGradient
       id="linearGradient3737">
      <stop
         id="stop3739"
         style="stop-color:#ffffff;stop-opacity:1"
         offset="0" />
      <stop
         id="stop3741"
         style="stop-color:#ffffff;stop-opacity:0"
         offset="1" />
    </linearGradient>
  </defs>
  <sodipodi:namedview
     id="base"
     pagecolor="#ffffff"
     bordercolor="#666666"
     borderopacity="1.0"
     inkscape:pageopacity="0.0"
     inkscape:pageshadow="2"
     inkscape:zoom="3.959798"
     inkscape:cx="6.5517517"
     inkscape:cy="25.07522"
     inkscape:document-units="px"
     inkscape:current-layer="layer1"
     showgrid="false"
     inkscape:window-width="1920"
     inkscape:window-height="1024"
     inkscape:window-x="0"
     inkscape:window-y="0"
     inkscape:window-maximized="1"
     inkscape:snap-object-midpoints="false"
     inkscape:snap-center="true"
     guidetolerance="10000"
     inkscape:snap-global="true" />
  <metadata
     id="metadata3210">
    <rdf:RDF>
      <cc:Work
         rdf:about="">
        <dc:format>image/svg+xml</dc:format>
        <dc:type
           rdf:resource="http://purl.org/dc/dcmitype/StillImage" />
        <dc:title />
      </cc:Work>
    </rdf:RDF>
  </metadata>
  <g
     inkscape:label="Layer 1"
     inkscape:groupmode="layer"
     id="layer1"
     transform="translate(0,-956.3622)">
    <g
       style="display:inline"
       id="layer6"
       transform="matrix(1.94885,0,0,1.9447801,-84.511144,859.33947)">
      <path
         d="m 68,116 c -11.060103,0 -20,8.93989 -20,20 0,11.06011 8.939897,20 20,20 11.060103,0 20,-8.93989 20,-20 0,-11.06011 -8.939897,-20 -20,-20 z"
         id="path3950"
         style="opacity:0.05;fill:#000000;fill-opacity:1;stroke:none;display:inline"
         transform="translate(0,-61)"
         inkscape:connector-curvature="0" />
      <path
         d="m 68,117 c -10.515528,0 -19,8.48447 -19,19 0,10.51553 8.484472,19 19,19 10.515528,0 19,-8.48447 19,-19 0,-10.51553 -8.484472,-19 -19,-19 z"
         id="path3946"
         style="opacity:0.15;fill:#000000;fill-opacity:1;stroke:none;display:inline"
         transform="translate(0,-61)"
         inkscape:connector-curvature="0" />
      <rect
         width="36"
         height="36"
         rx="18"
         ry="18"
         x="50"
         y="118"
         transform="translate(0,-61)"
         clip-path="url(#clipPath3871-9)"
         id="rect3859"
         style="opacity:0.31000001;fill:#000000;fill-opacity:1;stroke:none;display:inline" />
      <path
         d="m 68,56 c -9.94112,0 -18,8.05887 -18,18 0,9.94112 8.05888,18 18,18 9.73052,0 17.63723,-7.725264 17.96875,-17.375 l 0,-1.25 C 85.63723,63.725255 77.73052,56 68,56 z"
         inkscape:connector-curvature="0"
         id="rect5186"
         style="fill:url(#linearGradient4090);fill-opacity:1;stroke:none;display:inline" />
      <path
         d="m 112,66.875 c -1.99619,-0.01929 -3.87987,0.443887 -5.53125,1.3125 a 0.87790088,0.87790088 0 0 0 0.4375,1.65625 c 6.3376,-0.285463 9.93006,3.740885 10.59375,7.875 l -2.875,-0.03125 a 0.87790088,0.87790088 0 0 0 -0.71875,1.375 l 6.15625,8.8125 a 0.87790088,0.87790088 0 0 0 1.4375,0 l 6,-8.71875 a 0.87790088,0.87790088 0 0 0 -0.71875,-1.375 l -3,-0.03125 C 123.14879,71.745913 118.13531,66.934267 112,66.875 z"
         id="path4036"
         style="opacity:0.15;fill:url(#linearGradient4038);fill-opacity:1;stroke:none;display:inline"
         transform="matrix(-0.70710678,-0.70710678,0.70710678,-0.70710678,91.249853,209.59675)"
         inkscape:connector-curvature="0" />
      <path
         d="M 70.46875,56.1875 65.5625,91.8125 C 66.36121,91.920854 67.17157,92 68,92 77.94113,92 86,83.941125 86,74 86,64.897937 79.23961,57.39278 70.46875,56.1875 z"
         inkscape:connector-curvature="0"
         id="path2436"
         style="fill:url(#linearGradient4087);fill-opacity:1;stroke:none;display:inline" />
      <path
         d="m 126.77481,78.668776 -5.99211,8.721478 -6.16173,-8.838877 3.96478,0.0383 c -0.25101,-4.905678 -4.4683,-9.938783 -11.69776,-9.613148 1.52232,-0.80073 3.26698,-1.251477 5.1202,-1.233571 5.9493,0.05747 10.83282,4.956046 11.03252,10.889749 l 3.7341,0.03607 z"
         inkscape:connector-curvature="0"
         transform="matrix(-0.70710678,-0.70710678,0.70710678,-0.70710678,91.249853,209.59675)"
         clip-path="url(#clipPath4029)"
         id="path4022"
         style="opacity:0.3;fill:url(#linearGradient4051);fill-opacity:1;stroke:none;display:inline" />
      <path
         d="m 56.526643,65.033304 10.404078,-1.929954 -1.893029,10.607031 -2.77644,-2.830606 c -3.291347,3.64633 -3.868216,10.187347 1.474043,15.069088 -1.642644,-0.510241 -3.195031,-1.425176 -4.492794,-2.748262 -4.166153,-4.247427 -4.155507,-11.164414 -0.100955,-15.501385 l -2.614902,-2.665912 z"
         inkscape:connector-curvature="0"
         id="path4018"
         style="fill:url(#linearGradient4029);fill-opacity:1;stroke:none;display:inline" />
      <path
         d="m 112,66.8125 c -2.00436,-0.01937 -3.90375,0.471258 -5.5625,1.34375 a 0.92806666,0.92806666 0 0 0 0.46875,1.75 c 6.2657,-0.282225 9.79902,3.674283 10.5,7.75 L 114.625,77.625 a 0.92806666,0.92806666 0 0 0 -0.75,1.46875 l 6.15625,8.8125 a 0.92806666,0.92806666 0 0 0 1.5,0 l 6,-8.71875 a 0.92806666,0.92806666 0 0 0 -0.75,-1.46875 l -2.9375,-0.03125 C 123.18042,71.687492 118.14014,66.871813 112,66.8125 z"
         transform="matrix(0.70710678,0.70710678,-0.70710678,0.70710678,44.623877,-60.643078)"
         id="path4049"
         style="opacity:0.15;fill:url(#linearGradient4052);fill-opacity:1;stroke:none;display:inline"
         inkscape:connector-curvature="0" />
      <path
         d="m 126.77481,78.668776 -5.99211,8.721478 -6.16173,-8.838877 3.96478,0.0383 c -0.25101,-4.905678 -4.4683,-9.938783 -11.69776,-9.613148 1.52232,-0.80073 3.26698,-1.251477 5.1202,-1.233571 5.9493,0.05747 10.83282,4.956046 11.03252,10.889749 l 3.7341,0.03607 z"
         inkscape:connector-curvature="0"
         transform="matrix(0.70710678,0.70710678,-0.70710678,0.70710678,44.623877,-60.643078)"
         clip-path="url(#clipPath4029)"
         id="path4061"
         style="opacity:0.3;fill:url(#linearGradient4065);fill-opacity:1;stroke:none;display:inline" />
      <path
         d="m 79.347087,83.920368 -10.404078,1.929954 1.893029,-10.607031 2.77644,2.830606 c 3.291347,-3.64633 3.868216,-10.187347 -1.474043,-15.069088 1.642644,0.510241 3.195031,1.425176 4.492794,2.748262 4.166153,4.247427 4.155507,11.164414 0.100955,15.501385 l 2.614902,2.665912 z"
         inkscape:connector-curvature="0"
         id="path4063"
         style="fill:url(#linearGradient4042);fill-opacity:1;stroke:none;display:inline" />
      <g
         id="g4106">
        <path
           d="m 68,56 c -9.941125,0 -18,8.058875 -18,18 0,3.6617 1.09067,7.063961 2.96875,9.90625 C 51.722125,81.541769 51,78.858787 51,76 c 0,-9.388841 7.611159,-17 17,-17 9.388841,0 17,7.611159 17,17 0,2.858787 -0.722125,5.541769 -1.96875,7.90625 C 84.90933,81.063961 86,77.6617 86,74 86,64.058875 77.941125,56 68,56 z"
           inkscape:connector-curvature="0"
           id="path3846"
           style="opacity:0.3;fill:url(#linearGradient3857);fill-opacity:1;stroke:none" />
        <path
           d="m 68,56 c -9.94112,0 -18,8.05887 -18,18 0,0.168593 0.02664,0.33252 0.03125,0.5 C 50.298212,64.79197 58.227473,57 68,57 c 9.73052,0 17.63723,7.725255 17.96875,17.375 l 0,-1 C 85.63723,63.725255 77.73052,56 68,56 z"
           inkscape:connector-curvature="0"
           id="path4097"
           style="opacity:0.3;fill:#ffffff;fill-opacity:1;stroke:none;display:inline" />
      </g>
    </g>
  </g>
</svg>
