<?xml version="1.0" encoding="UTF-8" standalone="no"?>
<!-- Created with Inkscape (http://www.inkscape.org/) -->

<svg
   xmlns:dc="http://purl.org/dc/elements/1.1/"
   xmlns:cc="http://creativecommons.org/ns#"
   xmlns:rdf="http://www.w3.org/1999/02/22-rdf-syntax-ns#"
   xmlns:svg="http://www.w3.org/2000/svg"
   xmlns="http://www.w3.org/2000/svg"
   xmlns:xlink="http://www.w3.org/1999/xlink"
   xmlns:sodipodi="http://sodipodi.sourceforge.net/DTD/sodipodi-0.dtd"
   xmlns:inkscape="http://www.inkscape.org/namespaces/inkscape"
   width="96"
   height="96"
   id="svg3205"
   version="1.1"
   inkscape:version="0.48.4 r9939"
   sodipodi:docname="base-exec.svg">
  <defs
     id="defs3207">
    <clipPath
       id="clipPath3871-9">
      <path
         d="M 0,95.999997 0,156 l 96.000001,0 0,-60.000003 -96.000001,0 z M 68,116 c 9.941125,0 18,8.05888 18,18 0,9.94112 -8.058875,18 -18,18 -9.941125,0 -18,-8.05888 -18,-18 0,-9.94112 8.058875,-18 18,-18 z"
         inkscape:connector-curvature="0"
         id="path3873-5"
         style="fill:#ffffff;fill-opacity:1;stroke:none" />
    </clipPath>
    <linearGradient
       x1="69"
       y1="122"
       x2="69"
       y2="5.9781809"
       id="linearGradient4090"
       xlink:href="#linearGradient3187"
       gradientUnits="userSpaceOnUse"
       gradientTransform="matrix(0.30997964,0,0,0.31034484,48.14012,54.137931)" />
    <linearGradient
       id="linearGradient3187">
      <stop
         id="stop3189"
         style="stop-color:#1e71ac;stop-opacity:1"
         offset="0" />
      <stop
         id="stop3191"
         style="stop-color:#81c1e9;stop-opacity:1"
         offset="1" />
    </linearGradient>
    <linearGradient
       x1="120.64606"
       y1="87.489296"
       x2="118.33302"
       y2="67.706047"
       id="linearGradient4038"
       xlink:href="#linearGradient5010"
       gradientUnits="userSpaceOnUse" />
    <linearGradient
       id="linearGradient5010">
      <stop
         id="stop5012"
         style="stop-color:#000000;stop-opacity:1"
         offset="0" />
      <stop
         id="stop5014"
         style="stop-color:#000000;stop-opacity:0"
         offset="1" />
    </linearGradient>
    <linearGradient
       x1="69"
       y1="122"
       x2="69"
       y2="5.9781809"
       id="linearGradient4087"
       xlink:href="#linearGradient3210-5"
       gradientUnits="userSpaceOnUse"
       gradientTransform="matrix(0.30997964,0,0,0.31034484,48.18249,54.137931)" />
    <linearGradient
       id="linearGradient3210-5">
      <stop
         id="stop3212-7"
         style="stop-color:#8ab85b;stop-opacity:1;"
         offset="0" />
      <stop
         id="stop3214-3"
         style="stop-color:#bcd6a0;stop-opacity:1;"
         offset="1" />
    </linearGradient>
    <linearGradient
       x1="120.64606"
       y1="87.489296"
       x2="118.33302"
       y2="67.706047"
       id="linearGradient4051"
       xlink:href="#linearGradient5010"
       gradientUnits="userSpaceOnUse" />
    <linearGradient
       id="linearGradient3238">
      <stop
         id="stop3240"
         style="stop-color:#000000;stop-opacity:1"
         offset="0" />
      <stop
         id="stop3242"
         style="stop-color:#000000;stop-opacity:0"
         offset="1" />
    </linearGradient>
    <clipPath
       id="clipPath4029">
      <path
         d="m 118,56 c -9.94112,0 -18,8.05887 -18,18 0,9.94112 8.05888,18 18,18 9.73052,0 17.63723,-7.725264 17.96875,-17.375 l 0,-1.25 C 135.63723,63.725255 127.73052,56 118,56 z m -6,10.75 c 5.9493,0.05747 10.83155,4.941297 11.03125,10.875 l 3.75,0.03125 -6,8.71875 -6.15625,-8.8125 3.96875,0.03125 c -0.25101,-4.905678 -4.48929,-9.950635 -11.71875,-9.625 1.52232,-0.80073 3.27178,-1.236656 5.125,-1.21875 z"
         inkscape:connector-curvature="0"
         id="path4031"
         style="fill:url(#linearGradient4033);fill-opacity:1;stroke:none;display:inline" />
    </clipPath>
    <linearGradient
       x1="84.35965"
       y1="79.416924"
       x2="84.35965"
       y2="5.1837206"
       id="linearGradient4029"
       xlink:href="#linearGradient3250"
       gradientUnits="userSpaceOnUse"
       gradientTransform="matrix(-0.30059886,0,0,-0.30318299,86.16905,93.461103)" />
    <linearGradient
       id="linearGradient3250">
      <stop
         id="stop3252"
         style="stop-color:#ffffff;stop-opacity:1"
         offset="0" />
      <stop
         id="stop3254"
         style="stop-color:#ffffff;stop-opacity:0.49803922"
         offset="0.43290177" />
      <stop
         id="stop3256"
         style="stop-color:#ffffff;stop-opacity:0"
         offset="1" />
    </linearGradient>
    <linearGradient
       x1="120.64606"
       y1="87.489296"
       x2="118.33302"
       y2="67.706047"
       id="linearGradient4052"
       xlink:href="#linearGradient5010"
       gradientUnits="userSpaceOnUse" />
    <linearGradient
       id="linearGradient3252">
      <stop
         id="stop3255"
         style="stop-color:#000000;stop-opacity:1"
         offset="0" />
      <stop
         id="stop3257"
         style="stop-color:#000000;stop-opacity:0"
         offset="1" />
    </linearGradient>
    <linearGradient
       x1="120.64606"
       y1="87.489296"
       x2="118.33302"
       y2="67.706047"
       id="linearGradient4065"
       xlink:href="#linearGradient5010"
       gradientUnits="userSpaceOnUse" />
    <linearGradient
       id="linearGradient3260">
      <stop
         id="stop3262"
         style="stop-color:#000000;stop-opacity:1"
         offset="0" />
      <stop
         id="stop3264"
         style="stop-color:#000000;stop-opacity:0"
         offset="1" />
    </linearGradient>
    <clipPath
       id="clipPath3266">
      <path
         d="m 118,56 c -9.94112,0 -18,8.05887 -18,18 0,9.94112 8.05888,18 18,18 9.73052,0 17.63723,-7.725264 17.96875,-17.375 l 0,-1.25 C 135.63723,63.725255 127.73052,56 118,56 z m -6,10.75 c 5.9493,0.05747 10.83155,4.941297 11.03125,10.875 l 3.75,0.03125 -6,8.71875 -6.15625,-8.8125 3.96875,0.03125 c -0.25101,-4.905678 -4.48929,-9.950635 -11.71875,-9.625 1.52232,-0.80073 3.27178,-1.236656 5.125,-1.21875 z"
         inkscape:connector-curvature="0"
         id="path3268"
         style="fill:url(#linearGradient4033);fill-opacity:1;stroke:none;display:inline" />
    </clipPath>
    <linearGradient
       x1="84.35965"
       y1="79.416924"
       x2="84.35965"
       y2="5.1837206"
       id="linearGradient4042"
       xlink:href="#linearGradient3250"
       gradientUnits="userSpaceOnUse"
       gradientTransform="matrix(0.30059886,0,0,0.30318299,49.70468,55.492569)" />
    <linearGradient
       id="linearGradient3271">
      <stop
         id="stop3273"
         style="stop-color:#ffffff;stop-opacity:1"
         offset="0" />
      <stop
         id="stop3275"
         style="stop-color:#ffffff;stop-opacity:0.49803922"
         offset="0.43290177" />
      <stop
         id="stop3277"
         style="stop-color:#ffffff;stop-opacity:0"
         offset="1" />
    </linearGradient>
    <linearGradient
       x1="64.321426"
       y1="55.310268"
       x2="64.321426"
       y2="84.889679"
       id="linearGradient3857"
       xlink:href="#linearGradient3737"
       gradientUnits="userSpaceOnUse"
       gradientTransform="translate(-2,0)" />
    <linearGradient
       id="linearGradient3737">
      <stop
         id="stop3739"
         style="stop-color:#ffffff;stop-opacity:1"
         offset="0" />
      <stop
         id="stop3741"
         style="stop-color:#ffffff;stop-opacity:0"
         offset="1" />
    </linearGradient>
    <linearGradient
       spreadMethod="pad"
       gradientUnits="userSpaceOnUse"
       y2="-14.752663"
       x2="47.999996"
       y1="67.438095"
       x1="47.999996"
       id="linearGradient3836"
       xlink:href="#linearGradient3830"
       inkscape:collect="always"
       gradientTransform="matrix(0.99139417,0,0,0.99139415,0.10740736,1.7652623)" />
    <linearGradient
       y2="24"
       x2="48"
       y1="72"
       x1="48"
       gradientTransform="matrix(1.551552,0,0,1.551552,-27.388111,-26.368299)"
       gradientUnits="userSpaceOnUse"
       id="linearGradient3885"
       xlink:href="#linearGradient4081"
       inkscape:collect="always" />
    <filter
       color-interpolation-filters="sRGB"
       inkscape:label="Dark and Glow"
       inkscape:menu="Shadows and Glows"
       inkscape:menu-tooltip="Darkens the edge with an inner blur and adds a flexible glow"
       height="1.5"
       y="-0.25"
       id="filter5299">
      <feGaussianBlur
         result="result6"
         stdDeviation="5"
         id="feGaussianBlur5301" />
      <feComposite
         operator="atop"
         in="SourceGraphic"
         result="result8"
         in2="result6"
         id="feComposite5303" />
      <feComposite
         in="result8"
         operator="over"
         result="result9"
         in2="SourceAlpha"
         id="feComposite5305" />
      <feColorMatrix
         result="result10"
         values="1 0 0 0 0 0 1 0 0 0 0 0 1 0 0 0 0 0 1 0 "
         id="feColorMatrix5307" />
      <feBlend
         mode="normal"
         in="result10"
         in2="result6"
         id="feBlend5309" />
    </filter>
    <linearGradient
       y2="24"
       x2="48"
       y1="72"
       x1="48"
       gradientTransform="matrix(1.7613571,0,0,1.7613571,-36.545139,-38.120052)"
       gradientUnits="userSpaceOnUse"
       id="linearGradient4954"
       xlink:href="#linearGradient4081"
       inkscape:collect="always" />
    <linearGradient
       gradientTransform="matrix(1.7613571,0,0,1.7613571,-36.545139,-38.120052)"
       y2="24"
       x2="48"
       y1="72"
       x1="48"
       gradientUnits="userSpaceOnUse"
       id="linearGradient3022"
       xlink:href="#linearGradient4081"
       inkscape:collect="always" />
    <linearGradient
       y2="63.893143"
       x2="36.357143"
       y1="6"
       x1="36.357143"
       gradientUnits="userSpaceOnUse"
       id="linearGradient3043"
       xlink:href="#linearGradient3737-5"
       inkscape:collect="always" />
    <linearGradient
       gradientUnits="userSpaceOnUse"
       xlink:href="#linearGradient4081"
       id="linearGradient3747"
       y2="24"
       x2="48"
       y1="72"
       x1="48" />
    <linearGradient
       id="linearGradient4081">
      <stop
         offset="0"
         style="stop-color:#aaaaaa;stop-opacity:1"
         id="stop4083" />
      <stop
         offset="1"
         style="stop-color:#f0f0f0;stop-opacity:1"
         id="stop4085" />
    </linearGradient>
    <filter
       id="filter3657"
       color-interpolation-filters="sRGB">
      <feGaussianBlur
         stdDeviation="1.14"
         id="feGaussianBlur3659" />
    </filter>
    <clipPath
       id="clipPath3649">
      <rect
         style="fill:#ffffff;fill-opacity:1;fill-rule:nonzero;stroke:none"
         id="rect3651"
         y="10"
         x="10"
         ry="4"
         rx="4"
         height="76"
         width="76" />
    </clipPath>
    <linearGradient
       gradientUnits="userSpaceOnUse"
       xlink:href="#linearGradient3637"
       id="linearGradient3643"
       y2="90.015434"
       x2="44.512066"
       y1="6"
       x1="44.512066" />
    <clipPath
       id="clipPath3625">
      <path
         inkscape:connector-curvature="0"
         style="fill:#ffffff;fill-opacity:1;stroke:none"
         id="path3627"
         d="M 0,0 0,96 96,96 96,0 0,0 z m 12,6 72,0 c 3.324,0 6,2.676 6,6 l 0,72 c 0,3.324 -2.676,6 -6,6 L 12,90 C 8.676,90 6,87.324 6,84 L 6,12 C 6,8.676 8.676,6 12,6 z" />
    </clipPath>
    <linearGradient
       gradientTransform="translate(0,100)"
       gradientUnits="userSpaceOnUse"
       xlink:href="#linearGradient3700"
       id="linearGradient2843"
       y2="5.9877172"
       x2="48"
       y1="90"
       x1="48" />
    <radialGradient
       gradientTransform="matrix(1.1573129,0,0,0.99590774,-7.5510206,0.19713193)"
       gradientUnits="userSpaceOnUse"
       xlink:href="#linearGradient3737-5"
       id="radialGradient3619"
       fy="90.171875"
       fx="48"
       r="42"
       cy="90.171875"
       cx="48" />
    <linearGradient
       gradientUnits="userSpaceOnUse"
       xlink:href="#linearGradient3737-5"
       id="linearGradient3188"
       y2="63.893143"
       x2="36.357143"
       y1="6"
       x1="36.357143" />
    <filter
       id="filter3174"
       color-interpolation-filters="sRGB">
      <feGaussianBlur
         stdDeviation="1.71"
         id="feGaussianBlur3176" />
    </filter>
    <linearGradient
       id="linearGradient3700">
      <stop
         offset="0"
         style="stop-color:#2276c5;stop-opacity:1"
         id="stop3702" />
      <stop
         offset="1"
         style="stop-color:#68baf4;stop-opacity:1"
         id="stop3704" />
    </linearGradient>
    <linearGradient
       id="linearGradient3737-5">
      <stop
         offset="0"
         style="stop-color:#ffffff;stop-opacity:1"
         id="stop3739-1" />
      <stop
         offset="1"
         style="stop-color:#ffffff;stop-opacity:0"
         id="stop3741-4" />
    </linearGradient>
    <linearGradient
       gradientTransform="scale(1.0058652,0.994169)"
       gradientUnits="userSpaceOnUse"
       id="ButtonShadow"
       y2="7.0165396"
       x2="45.447727"
       y1="92.539597"
       x1="45.447727">
      <stop
         offset="0"
         style="stop-color:#000000;stop-opacity:1"
         id="stop3750" />
      <stop
         offset="1"
         style="stop-color:#000000;stop-opacity:0.58823532"
         id="stop3752" />
    </linearGradient>
    <linearGradient
       id="linearGradient3637">
      <stop
         offset="0"
         style="stop-color:#f0f0f0;stop-opacity:1"
         id="stop3639" />
      <stop
         offset="1"
         style="stop-color:#dcdcdc;stop-opacity:1"
         id="stop3641" />
    </linearGradient>
    <linearGradient
       id="linearGradient3830">
      <stop
         id="stop3832"
         offset="0"
         style="stop-color:#fafafa;stop-opacity:0.78431374;" />
      <stop
         id="stop3834"
         offset="1"
         style="stop-color:#000000;stop-opacity:0.07843138;" />
    </linearGradient>
  </defs>
  <sodipodi:namedview
     id="base"
     pagecolor="#000000"
     bordercolor="#666666"
     borderopacity="1.0"
     inkscape:pageopacity="0"
     inkscape:pageshadow="2"
     inkscape:zoom="1.4"
     inkscape:cx="204.74837"
     inkscape:cy="160.86857"
     inkscape:document-units="px"
     inkscape:current-layer="g3127"
     showgrid="false"
     inkscape:window-width="1920"
     inkscape:window-height="1024"
     inkscape:window-x="0"
     inkscape:window-y="0"
     inkscape:window-maximized="1"
     inkscape:snap-object-midpoints="true"
     inkscape:snap-center="false"
     guidetolerance="10000"
     inkscape:snap-global="true" />
  <metadata
     id="metadata3210">
    <rdf:RDF>
      <cc:Work
         rdf:about="">
        <dc:format>image/svg+xml</dc:format>
        <dc:type
           rdf:resource="http://purl.org/dc/dcmitype/StillImage" />
        <dc:title />
      </cc:Work>
    </rdf:RDF>
  </metadata>
  <g
     inkscape:label="Layer 1"
     inkscape:groupmode="layer"
     id="layer1"
     transform="translate(0,-956.3622)">
    <g
       id="g3808">
      <g
         style="display:inline"
         id="g3127"
         transform="matrix(0.85819793,0,0,0.85819793,7.5688266,964.00826)">
        <rect
           y="28.780752"
           x="28.486067"
           height="38.416523"
           width="38.416519"
           id="rect3931"
           style="fill:#ffcc00;fill-opacity:1;stroke:none" />
        <path
           sodipodi:nodetypes="ssssssssss"
           inkscape:connector-curvature="0"
           id="path5333"
           d="m 47.694326,7.4038165 c -23.126202,0 -41.9483632,18.8221635 -41.9483632,41.9483645 0,23.126202 18.8221612,41.948365 41.9483632,41.948365 23.126202,0 41.948367,-18.822163 41.948367,-41.948365 0,-23.126201 -18.822165,-41.9483645 -41.948367,-41.9483645 z m 2e-6,27.0675365 c 7.106577,0 13.51766,6.347061 13.51766,13.517661 0,7.1706 -6.411083,13.517657 -13.51766,13.517657 -7.106577,0 -13.517658,-6.347055 -13.517658,-13.517655 0,-7.1706 6.411081,-13.517663 13.517658,-13.517663 z"
           style="opacity:0.08999999;fill:#000000;fill-opacity:1;stroke:none" />
        <path
           sodipodi:nodetypes="ssssssssss"
           inkscape:connector-curvature="0"
           id="path5329"
           d="m 47.694328,9.1077752 c -22.199645,0 -40.2444076,18.0447648 -40.2444076,40.2444058 0,22.199641 18.0447626,40.244406 40.2444076,40.244406 22.199641,0 40.244407,-18.044765 40.244407,-40.244406 0,-22.199641 -18.044766,-40.2444058 -40.244407,-40.2444058 z m 0,23.9409278 c 7.682786,0 14.940306,7.193505 14.940306,14.940313 0,7.746808 -7.257518,14.940308 -14.940304,14.940308 -7.682786,0 -14.940312,-7.1935 -14.940312,-14.940308 0,-7.746808 7.257524,-14.940313 14.94031,-14.940313 z"
           style="opacity:0.1;fill:#000000;fill-opacity:1;stroke:none" />
        <path
           sodipodi:nodetypes="ssssssssss"
           inkscape:connector-curvature="0"
           id="path5325"
           d="m 47.694328,10.656829 c -21.348722,0 -38.6953542,17.346631 -38.6953542,38.695352 0,21.348721 17.3466322,38.695353 38.6953542,38.695353 21.348722,0 38.695354,-17.346632 38.695354,-38.695353 0,-21.348721 -17.346632,-38.695352 -38.695354,-38.695352 z m 0,20.969224 c 8.707157,0 16.362958,7.655806 16.362958,16.362963 0,8.707157 -7.655801,16.362959 -16.362958,16.362959 -8.707157,0 -16.362962,-7.655804 -16.362962,-16.362961 0,-8.707157 7.655805,-16.362961 16.362962,-16.362961 z"
           style="opacity:0.15;fill:#000000;fill-opacity:1;stroke:none" />
        <path
           sodipodi:nodetypes="ssssssssss"
           inkscape:connector-curvature="0"
           id="path5321"
           d="m 47.694328,12.112938 c -20.56556,0 -37.239244,16.673679 -37.239244,37.239243 0,20.565564 16.673684,37.239243 37.239244,37.239243 20.565564,0 37.239244,-16.673679 37.239244,-37.239243 0,-20.565564 -16.67368,-37.239243 -37.239244,-37.239243 z m 0,18.092943 c 9.667506,0 17.785612,8.243674 17.785612,17.783133 0,9.539459 -8.118106,17.785611 -17.785612,17.785611 -9.667506,0 -17.785611,-8.246152 -17.785611,-17.785611 0,-9.539459 8.118105,-17.783133 17.785611,-17.783133 z"
           style="opacity:0.3;fill:#000000;fill-opacity:1;stroke:none" />
        <path
           sodipodi:nodetypes="ssssssssss"
           inkscape:connector-curvature="0"
           id="path5317"
           d="m 47.086381,10.870377 c -20.56556,0 -37.2392436,16.673679 -37.2392436,37.239242 0,20.565563 16.6736836,37.239243 37.2392436,37.239243 20.56556,0 37.239244,-16.67368 37.239244,-37.239243 0,-20.565563 -16.673684,-37.239242 -37.239244,-37.239242 z m 0,18.03098 c 10.503584,0 19.208262,8.626873 19.208262,19.208262 0,10.581389 -8.704678,19.208262 -19.208262,19.208262 -10.503583,0 -19.208262,-8.626873 -19.208262,-19.208262 0,-10.581389 8.704679,-19.208262 19.208262,-19.208262 z"
           style="fill:url(#linearGradient3885);fill-opacity:1;stroke:none" />
        <path
           sodipodi:nodetypes="scscs"
           inkscape:connector-curvature="0"
           id="path3838"
           d="m 47.694328,10.749772 c -20.544852,0 -37.205713,16.702236 -37.239244,37.239242 0.441833,-20.181856 16.95135,-36.464716 37.239244,-36.464716 20.287897,0 36.797417,16.28286 37.239244,36.464716 C 84.900041,27.452008 68.239182,10.749772 47.694328,10.749772 z"
           style="opacity:0.75;fill:#ffffff;fill-opacity:1;stroke:none" />
        <path
           sodipodi:nodetypes="cscsc"
           inkscape:connector-curvature="0"
           id="path3758"
           d="m 10.455084,47.989014 c 0.03354,20.537007 16.694392,37.239243 37.239244,37.239243 20.544854,0 37.205713,-16.702239 37.239244,-37.239243 -0.441832,20.180279 -16.951347,35.690189 -37.239244,35.690189 -20.287894,0 -36.797416,-15.509905 -37.239244,-35.690189 z"
           style="opacity:0.15;fill:#000000;fill-opacity:1;stroke:none" />
        <g
           inkscape:label="1"
           id="layer1-0" />
        <path
           inkscape:connector-curvature="0"
           id="path3057"
           d="m 47.694324,27.356212 c -11.394143,0 -20.633391,9.239253 -20.633391,20.633391 0,11.394138 9.239248,20.633391 20.633391,20.633391 11.394143,0 20.633391,-9.239253 20.633391,-20.633391 0,-11.394138 -9.239248,-20.633391 -20.633391,-20.633391 z m 0,1.425129 c 10.608433,0 19.208262,8.599832 19.208262,19.208262 0,10.60843 -8.599829,19.208262 -19.208262,19.208262 -10.608433,0 -19.208262,-8.599832 -19.208262,-19.208262 0,-10.60843 8.599829,-19.208262 19.208262,-19.208262 z"
           style="fill:url(#linearGradient3836);fill-opacity:1;stroke:none" />
      </g>
    </g>
  </g>
</svg>
