<?xml version="1.0" encoding="UTF-8" standalone="no"?>
<svg
   xmlns:dc="http://purl.org/dc/elements/1.1/"
   xmlns:cc="http://creativecommons.org/ns#"
   xmlns:rdf="http://www.w3.org/1999/02/22-rdf-syntax-ns#"
   xmlns:svg="http://www.w3.org/2000/svg"
   xmlns="http://www.w3.org/2000/svg"
   width="48px"
   height="48px"
   id="svg7387"
   version="1.1">
  <defs
     id="defs7389" />
  <metadata
     id="metadata7392">
    <rdf:RDF>
      <cc:Work
         rdf:about="">
        <dc:format>image/svg+xml</dc:format>
        <dc:type
           rdf:resource="http://purl.org/dc/dcmitype/StillImage" />
        <dc:title></dc:title>
      </cc:Work>
    </rdf:RDF>
  </metadata>
  <path
     id="path4282"
     d="M 23.765625 4.7792969 C 23.664775 4.7792969 22.784438 5.286334 21.808594 5.90625 C 18.422368 8.057389 13.601203 10.328106 8.1347656 12.345703 C 6.6245965 12.903089 5.3641713 13.384626 5.3320312 13.416016 C 5.1953982 13.549472 5.9525349 17.928146 6.4980469 20.15625 C 9.06994 30.660972 14.926429 39.21749 22.496094 43.53125 C 23.374155 44.031636 24.14893 44.441406 24.21875 44.441406 C 24.288568 44.441406 25.178262 43.914704 26.195312 43.271484 C 33.114688 38.895419 38.262535 31.568107 41.179688 21.945312 C 41.83836 19.772559 43.240426 13.17402 43.078125 13.011719 C 43.039666 12.973261 41.271713 12.256551 39.148438 11.419922 C 34.236369 9.4844317 30.342592 7.8178627 26.771484 6.1210938 C 25.219364 5.3836217 23.866475 4.7792969 23.765625 4.7792969 z M 23.980469 9.3808594 C 25.020469 9.3808594 26.059609 9.4591406 27.099609 9.6191406 L 26.699219 29.179688 C 25.765885 29.339688 24.872865 29.419922 24.019531 29.419922 C 23.112865 29.419922 22.207448 29.339688 21.300781 29.179688 L 20.900391 9.6191406 C 21.940391 9.4591406 22.967135 9.3808594 23.980469 9.3808594 z M 23.980469 32.259766 C 24.940469 32.259766 25.92612 32.34 26.939453 32.5 C 27.099453 33.513333 27.179688 34.486589 27.179688 35.419922 C 27.179688 36.406589 27.099453 37.394193 26.939453 38.380859 C 25.92612 38.540859 24.952865 38.619141 24.019531 38.619141 C 23.032865 38.619141 22.047214 38.540859 21.060547 38.380859 C 20.900547 37.394193 20.820312 36.420938 20.820312 35.460938 C 20.820312 34.500937 20.900547 33.513333 21.060547 32.5 C 22.047214 32.34 23.020469 32.259766 23.980469 32.259766 z "
     style="fill:#f57900;fill-opacity:1;stroke:none" />
</svg>
