<?xml version="1.0" encoding="UTF-8" standalone="no"?>
<svg
   xmlns:dc="http://purl.org/dc/elements/1.1/"
   xmlns:cc="http://creativecommons.org/ns#"
   xmlns:rdf="http://www.w3.org/1999/02/22-rdf-syntax-ns#"
   xmlns:svg="http://www.w3.org/2000/svg"
   xmlns="http://www.w3.org/2000/svg"
   width="48px"
   height="48px"
   id="svg7387"
   version="1.1">
  <defs
     id="defs7389" />
  <metadata
     id="metadata7392">
    <rdf:RDF>
      <cc:Work
         rdf:about="">
        <dc:format>image/svg+xml</dc:format>
        <dc:type
           rdf:resource="http://purl.org/dc/dcmitype/StillImage" />
        <dc:title></dc:title>
      </cc:Work>
    </rdf:RDF>
  </metadata>
  <path
     id="path4282"
     d="M 23.765625 4.7792969 C 23.664775 4.7792969 22.784438 5.286334 21.808594 5.90625 C 18.422368 8.057389 13.601203 10.328106 8.1347656 12.345703 C 6.6245965 12.903089 5.3641713 13.384626 5.3320312 13.416016 C 5.1953982 13.549472 5.9525349 17.928146 6.4980469 20.15625 C 9.06994 30.660972 14.926429 39.21749 22.496094 43.53125 C 23.374155 44.031636 24.14893 44.441406 24.21875 44.441406 C 24.288568 44.441406 25.178262 43.914704 26.195312 43.271484 C 33.114688 38.895419 38.262535 31.568107 41.179688 21.945312 C 41.83836 19.772559 43.240426 13.17402 43.078125 13.011719 C 43.039666 12.973261 41.271713 12.256551 39.148438 11.419922 C 34.236369 9.4844317 30.342592 7.8178627 26.771484 6.1210938 C 25.219364 5.3836217 23.866475 4.7792969 23.765625 4.7792969 z M 22.9375 11.957031 C 25.595127 11.957031 27.598258 12.567077 28.949219 13.785156 C 30.300179 14.981088 30.976562 16.63042 30.976562 18.734375 C 30.976562 19.775279 30.77755 20.672787 30.378906 21.425781 C 29.980262 22.178776 29.491834 22.820037 28.916016 23.351562 C 28.362343 23.860941 27.787419 24.283031 27.189453 24.615234 C 26.591487 24.925291 26.10306 25.157472 25.726562 25.3125 L 25.726562 28.335938 C 24.951421 28.468819 24.210654 28.535156 23.501953 28.535156 C 22.771106 28.535156 22.07261 28.468819 21.408203 28.335938 L 21.408203 22.621094 C 21.917581 22.532506 22.450234 22.410887 23.003906 22.255859 C 23.557578 22.078684 24.066165 21.846503 24.53125 21.558594 C 24.996335 21.270684 25.372247 20.916884 25.660156 20.496094 C 25.970213 20.053156 26.126953 19.509448 26.126953 18.867188 C 26.126953 17.914871 25.782257 17.196216 25.095703 16.708984 C 24.40915 16.199606 23.502539 15.943359 22.373047 15.943359 C 21.907962 15.943359 21.485872 15.965472 21.109375 16.009766 C 20.755024 16.031912 20.423338 16.087194 20.113281 16.175781 C 19.803225 16.242221 19.482595 16.330671 19.150391 16.441406 C 18.840335 16.529994 18.506694 16.642509 18.152344 16.775391 C 17.842287 16.199571 17.587994 15.600582 17.388672 14.980469 C 17.18935 14.360356 17.067731 13.719095 17.023438 13.054688 C 17.599256 12.855365 18.131909 12.687569 18.619141 12.554688 C 19.106372 12.39966 19.58179 12.278041 20.046875 12.189453 C 20.51196 12.100866 20.976322 12.045584 21.441406 12.023438 C 21.906491 11.979144 22.405975 11.957031 22.9375 11.957031 z M 23.501953 30.759766 C 24.299241 30.759766 25.119355 30.826103 25.960938 30.958984 C 26.093819 31.800566 26.160156 32.609624 26.160156 33.384766 C 26.160156 34.2042 26.093819 35.024315 25.960938 35.84375 C 25.119355 35.976631 24.310298 36.042969 23.535156 36.042969 C 22.715722 36.042969 21.895607 35.976631 21.076172 35.84375 C 20.943291 35.024315 20.876953 34.215257 20.876953 33.417969 C 20.876953 32.620681 20.943291 31.800566 21.076172 30.958984 C 21.895607 30.826103 22.704665 30.759766 23.501953 30.759766 z "
     style="fill:#bebebe;fill-opacity:1;stroke:none" />
</svg>
